<?xml version="1.0" encoding="UTF-8" standalone="no"?>
<!-- Created with Inkscape (http://www.inkscape.org/) -->

<svg
   width="3585.6877"
   height="511.36502"
   viewBox="0 0 3585.6877 511.36508"
   version="1.1"
   id="svg5"
   xml:space="preserve"
   inkscape:export-filename="finding_events.png"
   inkscape:export-xdpi="96"
   inkscape:export-ydpi="96"
   inkscape:version="1.2.2 (b0a8486541, 2022-12-01)"
   sodipodi:docname="finding_events.svg"
   xmlns:inkscape="http://www.inkscape.org/namespaces/inkscape"
   xmlns:sodipodi="http://sodipodi.sourceforge.net/DTD/sodipodi-0.dtd"
   xmlns="http://www.w3.org/2000/svg"
   xmlns:svg="http://www.w3.org/2000/svg"><sodipodi:namedview
     id="namedview7"
     pagecolor="#505050"
     bordercolor="#eeeeee"
     borderopacity="1"
     inkscape:showpageshadow="0"
     inkscape:pageopacity="0"
     inkscape:pagecheckerboard="0"
     inkscape:deskcolor="#505050"
     inkscape:document-units="px"
     showgrid="false"
     inkscape:zoom="0.54187652"
     inkscape:cx="1792.8439"
     inkscape:cy="-747.40275"
     inkscape:window-width="2560"
     inkscape:window-height="1339"
     inkscape:window-x="0"
     inkscape:window-y="32"
     inkscape:window-maximized="1"
     inkscape:current-layer="layer2" /><defs
     id="defs2"><marker
       style="overflow:visible"
       id="TriangleStart"
       refX="0"
       refY="0"
       orient="auto-start-reverse"
       inkscape:stockid="TriangleStart"
       markerWidth="5.3244081"
       markerHeight="6.155385"
       viewBox="0 0 5.3244081 6.1553851"
       inkscape:isstock="true"
       inkscape:collect="always"
       preserveAspectRatio="xMidYMid"><path
         transform="scale(0.5)"
         style="fill:context-stroke;fill-rule:evenodd;stroke:context-stroke;stroke-width:1pt"
         d="M 5.77,0 -2.88,5 V -5 Z"
         id="path135" /></marker><marker
       style="overflow:visible"
       id="Arrow4"
       refX="0"
       refY="0"
       orient="auto-start-reverse"
       inkscape:stockid="Arrow4"
       markerWidth="5"
       markerHeight="6"
       viewBox="0 0 5 6"
       inkscape:isstock="true"
       inkscape:collect="always"
       preserveAspectRatio="xMidYMid"><path
         style="fill:context-stroke;fill-rule:evenodd;stroke:none"
         d="m 1,0 -3,3 h -2 l 3,-3 -3,-3 h 2 z"
         id="path1741" /></marker><rect
       x="1515.0197"
       y="641.33795"
       width="633.90112"
       height="455.05872"
       id="rect6188" /><marker
       style="overflow:visible"
       id="Diamond"
       refX="0"
       refY="0"
       orient="auto"
       inkscape:stockid="Diamond"
       markerWidth="7.2124891"
       markerHeight="7.2124891"
       viewBox="0 0 7.2124892 7.2124892"
       inkscape:isstock="true"
       inkscape:collect="always"
       preserveAspectRatio="xMidYMid"><path
         transform="scale(0.45)"
         style="fill:context-stroke;fill-rule:evenodd;stroke:context-stroke;stroke-width:1pt"
         d="M 0,-7.0710768 -7.0710894,0 0,7.0710589 7.0710462,0 Z"
         id="Diamond1" /></marker><marker
       style="overflow:visible"
       id="Dot"
       refX="0"
       refY="0"
       orient="auto"
       inkscape:stockid="Dot"
       markerWidth="5.6666665"
       markerHeight="5.6666665"
       viewBox="0 0 5.6666667 5.6666667"
       inkscape:isstock="true"
       inkscape:collect="always"
       preserveAspectRatio="xMidYMid"><path
         transform="scale(0.5)"
         style="fill:context-stroke;fill-rule:evenodd;stroke:context-stroke;stroke-width:1pt"
         d="M 5,0 C 5,2.76 2.76,5 0,5 -2.76,5 -5,2.76 -5,0 c 0,-2.76 2.3,-5 5,-5 2.76,0 5,2.24 5,5 z"
         id="Dot1"
         sodipodi:nodetypes="sssss" /></marker><marker
       style="overflow:visible"
       id="Dot-6"
       refX="0"
       refY="0"
       orient="auto"
       inkscape:stockid="Dot"
       markerWidth="5.6666665"
       markerHeight="5.6666665"
       viewBox="0 0 5.6666667 5.6666667"
       inkscape:isstock="true"
       inkscape:collect="always"
       preserveAspectRatio="xMidYMid"><path
         transform="scale(0.5)"
         style="fill:context-stroke;fill-rule:evenodd;stroke:context-stroke;stroke-width:1pt"
         d="M 5,0 C 5,2.76 2.76,5 0,5 -2.76,5 -5,2.76 -5,0 c 0,-2.76 2.3,-5 5,-5 2.76,0 5,2.24 5,5 z"
         id="Dot1-2"
         sodipodi:nodetypes="sssss" /></marker><marker
       style="overflow:visible"
       id="TriangleStart-5"
       refX="0"
       refY="0"
       orient="auto-start-reverse"
       inkscape:stockid="TriangleStart"
       markerWidth="5.3244081"
       markerHeight="6.155385"
       viewBox="0 0 5.3244081 6.1553851"
       inkscape:isstock="true"
       inkscape:collect="always"
       preserveAspectRatio="xMidYMid"><path
         transform="scale(0.5)"
         style="fill:context-stroke;fill-rule:evenodd;stroke:context-stroke;stroke-width:1pt"
         d="M 5.77,0 -2.88,5 V -5 Z"
         id="path135-3" /></marker></defs><g
     inkscape:groupmode="layer"
     id="layer2"
     inkscape:label="Layer 1"
     transform="translate(1250.1107,-179.7242)"><g
       id="g607"
       inkscape:label="identified events"><path
         style="opacity:0.5;fill:#ff5555;stroke:none;stroke-width:18;stroke-dasharray:none"
         d="m 1050.6666,516.87671 c 77.4459,-444.568959 184.6957,-449.946471 271.0782,-4.20839"
         id="path1831"
         sodipodi:nodetypes="cc"
         inkscape:label="distrib_red" /><g
         id="g10576"
         inkscape:label="dual distrib"
         transform="translate(2281.4014,1045.1484)"><path
           style="opacity:0.5;fill:#529f52;fill-opacity:1;stroke:none;stroke-width:18;stroke-dasharray:none"
           d="m -647.45754,-527.77169 c 77.4459,-444.56896 184.6957,-449.94647 271.0782,-4.20839"
           id="path1831-2-9"
           sodipodi:nodetypes="cc" /><path
           style="display:inline;fill:#ff6600;stroke:none;stroke-width:18.8976;opacity:0.4"
           d="m -646.95799,-527.33223 -66.83616,2.85287 0.4923,0.70164 c -24.85175,-35.41975 99.65231,-401.429 207.94131,-339.13741 0,0 0.90099,0.72068 -1.18592,0.16208 -69.56443,-18.62032 -134.92684,275.31554 -140.41153,335.42082 z"
           id="path10572"
           sodipodi:nodetypes="ccsssc" /></g><path
         style="fill:#000000;stroke:#000000;stroke-width:7.09811;stroke-dasharray:none;stroke-opacity:1"
         d="M 650.57633,514.63113 H 2201.6522"
         id="path1883-6"
         inkscape:label="baseline" /><path
         style="display:inline;fill:#008000;stroke:none;stroke-width:5.55002;stroke-dasharray:none;stroke-opacity:1"
         d="m 1934.1572,620.35175 c -3.4963,-2.75019 -4.3617,-7.37222 -8.0004,-42.73019 -0.8795,-8.54703 -2.117,-20.41019 -2.7498,-26.36259 -0.6329,-5.95239 -1.6683,-15.69267 -2.3009,-21.64506 -0.6326,-5.9524 -1.8633,-18.06531 -2.7348,-26.91759 -0.8715,-8.85228 -2.1159,-21.09007 -2.7653,-27.19509 -0.6494,-6.10502 -1.7116,-16.09505 -2.3604,-22.20007 -0.6489,-6.10502 -1.759,-16.8443 -2.467,-23.86508 -2.0317,-20.14684 -2.8441,-18.20302 -9.0461,21.64507 -4.5944,29.51926 -11.6458,71.95259 -12.3076,74.06378 -0.8711,2.77865 -5.8827,6.394 -7.8283,5.64738 -1.6639,-0.63849 -12.7658,-13.58947 -25.3855,-29.61349 -3.663,-4.65116 -6.9651,-8.46023 -7.3381,-8.4646 -0.3729,-0.004 -4.1192,6.52036 -8.325,14.49939 -4.2058,7.97904 -8.5741,15.34669 -9.7074,16.37255 -1.8735,1.6961 -7.0948,1.8607 -57.5811,1.8153 l -55.5208,-0.0499 -2.0815,-2.57055 c -2.729,-3.37006 -2.6421,-8.40967 0.2141,-12.42077 l 2.2956,-3.22386 h 52.4932 52.4933 l 8.0186,-15.81755 c 11.1089,-21.91341 11.8606,-23.03257 15.4694,-23.03257 3.5379,0 7.0965,3.49684 19.2035,18.87006 8.1059,10.29281 11.678,14.08237 12.443,13.20072 0.2079,-0.23962 1.4781,-7.4287 2.8227,-15.97573 3.3257,-21.14048 8.7267,-55.1447 10.0494,-63.2702 1.5794,-9.70275 5.4845,-34.79785 6.2183,-39.96013 1.9531,-13.74025 6.4472,-35.92464 7.8123,-38.56462 1.1598,-2.24275 2.4189,-3.06052 4.7122,-3.06052 5.7915,0 6.7584,2.52225 9.1029,23.7472 3.3097,29.96099 4.2431,38.70046 6.0593,56.72806 2.657,26.37435 3.7546,36.98638 4.9941,48.28516 0.6363,5.79977 1.8985,18.03756 2.8051,27.19509 1.8993,19.18695 3.1564,31.4736 5.4512,53.28017 0.8994,8.54702 1.6501,15.91467 1.6681,16.37255 0.018,0.45788 0.4718,0.8325 1.0083,0.8325 0.5364,0 2.3512,-5.11989 4.0327,-11.37753 5.83,-21.69558 11.4058,-41.36199 12.5429,-44.24061 1.3734,-3.47673 5,-4.27823 19.6341,-4.33932 l 9.99,-0.0417 8.3251,-12.36323 c 13.4367,-19.95447 16.3169,-23.28685 19.7807,-22.88661 2.4829,0.2869 4.9589,3.3242 14.9844,18.38125 l 12.0101,18.03756 h 43.0038 43.0039 l 2.4287,3.28507 c 3.2649,4.41589 3.1251,8.99381 -0.3748,12.28182 l -2.8036,2.63383 -45.2787,0.47303 -45.2787,0.47303 -3.3566,-4.30087 c -1.8461,-2.36549 -6.7236,-9.42077 -10.8388,-15.67841 -4.1152,-6.25765 -7.8239,-11.37754 -8.2415,-11.37754 -0.4177,0 -2.363,2.37263 -4.3229,5.27252 -8.4229,12.46243 -13.5984,19.63332 -15.6538,21.6887 -1.8136,1.81353 -4.2928,2.31961 -14.1182,2.88186 l -11.9184,0.68202 -2.0623,7.77002 c -1.1343,4.27352 -3.8103,14.26355 -5.9467,22.20007 -18.4629,68.5884 -16.8361,63.54222 -21.2307,65.85461 -1.9351,1.01822 -2.8949,0.84579 -5.1453,-0.92435 z"
         id="path4161"
         inkscape:label="heartbeat2" /><path
         style="display:inline;fill:#008000;stroke:none;stroke-width:5.55002;stroke-dasharray:none;stroke-opacity:1"
         d="m 892.42083,615.48742 c -3.4963,-2.75019 -4.3616,-7.37222 -8.0003,-42.73019 -0.8796,-8.54703 -2.117,-20.41019 -2.7499,-26.36259 -0.6328,-5.95239 -1.6682,-15.69267 -2.3008,-21.64506 -0.6326,-5.9524 -1.8633,-18.06531 -2.7348,-26.91759 -0.8715,-8.85228 -2.1159,-21.09007 -2.7654,-27.19509 -0.6494,-6.10502 -1.7116,-16.09505 -2.3604,-22.20007 -0.6488,-6.10502 -1.759,-16.8443 -2.467,-23.86508 -2.0317,-20.14684 -2.844,-18.20302 -9.046,21.64507 -4.5944,29.51926 -11.6458,71.95259 -12.3077,74.06378 -0.871,2.77865 -5.8826,6.394 -7.8283,5.64738 -1.6638,-0.63849 -12.7658,-13.58947 -25.3854,-29.61349 -3.663,-4.65116 -6.9652,-8.46023 -7.3381,-8.4646 -0.373,-0.004 -4.1193,6.52036 -8.3251,14.49939 -4.2058,7.97904 -8.5741,15.34669 -9.7073,16.37255 -1.8736,1.6961 -7.0949,1.8607 -57.5812,1.8153 l -55.5208,-0.0499 -2.0815,-2.57055 c -2.7289,-3.37006 -2.642,-8.40967 0.2141,-12.42077 l 2.2956,-3.22386 h 52.4933 52.4932 l 8.0187,-15.81755 c 11.1089,-21.91341 11.8605,-23.03257 15.4693,-23.03257 3.5379,0 7.0966,3.49684 19.2035,18.87006 8.106,10.29281 11.678,14.08237 12.443,13.20072 0.2079,-0.23962 1.4782,-7.4287 2.8227,-15.97573 3.3258,-21.14048 8.7268,-55.1447 10.0494,-63.2702 1.5795,-9.70275 5.4846,-34.79785 6.2184,-39.96013 1.9531,-13.74025 6.4471,-35.92464 7.8123,-38.56462 1.1598,-2.24275 2.4188,-3.06052 4.7121,-3.06052 5.7916,0 6.7584,2.52225 9.103,23.7472 3.3096,29.96099 4.2431,38.70046 6.0593,56.72806 2.657,26.37435 3.7546,36.98638 4.9941,48.28516 0.6362,5.79977 1.8985,18.03756 2.805,27.19509 1.8994,19.18695 3.1565,31.4736 5.4512,53.28017 0.8994,8.54702 1.6501,15.91467 1.6682,16.37255 0.018,0.45788 0.4718,0.8325 1.0082,0.8325 0.5365,0 2.3512,-5.11989 4.0328,-11.37753 5.83,-21.69558 11.4057,-41.36199 12.5428,-44.24061 1.3734,-3.47673 5,-4.27823 19.6342,-4.33932 l 9.99,-0.0417 8.325,-12.36323 c 13.4368,-19.95447 16.3169,-23.28685 19.7807,-22.88661 2.4829,0.2869 4.9589,3.3242 14.9844,18.38125 l 12.01007,18.03756 h 43.0039 43.0039 l 2.4287,3.28507 c 3.2648,4.41589 3.1251,8.99381 -0.3748,12.28182 l -2.8036,2.63383 -45.2787,0.47303 -45.27867,0.47303 -3.3566,-4.30087 c -1.8462,-2.36549 -6.7236,-9.42077 -10.8388,-15.67841 -4.1152,-6.25765 -7.8239,-11.37754 -8.2416,-11.37754 -0.4177,0 -2.363,2.37263 -4.3229,5.27252 -8.4228,12.46243 -13.5984,19.63332 -15.6538,21.6887 -1.8135,1.81353 -4.2928,2.31961 -14.1182,2.88186 l -11.9184,0.68202 -2.0622,7.77002 c -1.1343,4.27352 -3.8103,14.26355 -5.9467,22.20007 -18.463,68.5884 -16.8362,63.54222 -21.2307,65.85461 -1.9351,1.01822 -2.895,0.84579 -5.1454,-0.92435 z"
         id="path3883"
         inkscape:label="heartbeat1" /><path
         style="display:inline;fill:#ff0000;stroke:#ff0000;stroke-width:1.85;stroke-dasharray:none;stroke-dashoffset:0;stroke-opacity:1;image-rendering:auto"
         d="m 1410.2772,409.33833 c -3.4963,2.75019 -4.3617,7.37222 -8.0004,42.73019 -0.8795,8.54703 -2.117,20.41019 -2.7498,26.36259 -0.6329,5.95239 -1.6683,15.69267 -2.3009,21.64506 -0.6326,5.9524 -1.8633,18.06531 -2.7348,26.91759 -0.8715,8.85228 -2.1159,21.09007 -2.7653,27.19509 -0.6494,6.10502 -1.7116,16.09505 -2.3604,22.20007 -0.6489,6.10502 -1.759,16.8443 -2.467,23.86508 -2.0317,20.14684 -2.8441,18.20302 -9.0461,-21.64507 -4.5944,-29.51926 -11.6458,-71.95259 -12.3076,-74.06378 -0.8711,-2.77865 -5.8827,-6.394 -7.8283,-5.64738 -1.6639,0.63849 -12.7658,13.58947 -25.3855,29.61349 -3.663,4.65116 -6.9651,8.46023 -7.3381,8.4646 -0.3729,0.004 -4.1192,-6.52036 -8.325,-14.49939 -4.2058,-7.97904 -8.5741,-15.34669 -9.7074,-16.37255 -1.8735,-1.6961 -7.0948,-1.8607 -57.5811,-1.8153 l -55.5209,0.0499 -2.0815,2.57055 c -2.729,3.37006 -2.6421,8.40967 0.2141,12.42077 l 2.2956,3.22386 h 52.4933 52.4933 l 8.0186,15.81755 c 11.1089,21.91341 11.8606,23.03257 15.4694,23.03257 3.5379,0 7.0965,-3.49684 19.2035,-18.87006 8.1059,-10.29281 11.678,-14.08237 12.443,-13.20072 0.2079,0.23962 1.4781,7.4287 2.8227,15.97573 3.3257,21.14048 8.7267,55.1447 10.0494,63.2702 1.5794,9.70275 5.4845,34.79782 6.2183,39.96012 1.9531,13.7403 6.4472,35.92463 7.8123,38.56463 1.1598,2.2428 2.4189,3.0605 4.7122,3.0605 5.7915,0 6.7584,-2.5222 9.1029,-23.74723 3.3097,-29.9609 4.2431,-38.7004 6.0593,-56.72801 2.657,-26.37435 3.7546,-36.98638 4.9941,-48.28516 0.6363,-5.79977 1.8985,-18.03756 2.8051,-27.19509 1.8993,-19.18695 3.1564,-31.4736 5.4512,-53.28017 0.8994,-8.54702 1.6501,-15.91467 1.6681,-16.37255 0.018,-0.45788 0.4718,-0.8325 1.0083,-0.8325 0.5364,0 2.3512,5.11989 4.0327,11.37753 5.83,21.69558 11.4058,41.36199 12.5429,44.24061 1.3734,3.47673 5,4.27823 19.6341,4.33932 l 9.99,0.0417 8.3251,12.36323 c 13.4367,19.95447 16.3169,23.28685 19.7807,22.88661 2.4829,-0.2869 4.9589,-3.3242 14.9844,-18.38125 l 12.0101,-18.03756 h 43.0038 43.0039 l 2.4287,-3.28507 c 3.2649,-4.41589 3.1251,-8.99381 -0.3748,-12.28182 l -2.8036,-2.63383 -45.2787,-0.47303 -45.2787,-0.47303 -3.3566,4.30087 c -1.8461,2.36549 -6.7236,9.42077 -10.8388,15.67841 -4.1152,6.25765 -7.8239,11.37754 -8.2415,11.37754 -0.4177,0 -2.363,-2.37263 -4.3229,-5.27252 -8.4229,-12.46243 -13.5984,-19.63332 -15.6538,-21.6887 -1.8136,-1.81353 -4.2928,-2.31961 -14.1182,-2.88186 l -11.9184,-0.68202 -2.0623,-7.77002 c -1.1343,-4.27352 -3.8103,-14.26355 -5.9467,-22.20007 -18.4629,-68.5884 -16.8361,-63.54222 -21.2307,-65.85461 -1.9351,-1.01822 -2.8949,-0.84579 -5.1453,0.92435 z"
         id="anomaly" /><path
         style="fill:#d40000;stroke:#008000;stroke-width:14;stroke-dasharray:none;stroke-opacity:1;marker-end:url(#Dot-6)"
         d="M 1707.7424,512.05366 V 292.74043"
         id="path4478-9"
         inkscape:label="event4" /><path
         style="fill:#ff6600;stroke:#ff6600;stroke-width:14;stroke-dasharray:none;stroke-opacity:1;marker-end:url(#TriangleStart-5)"
         d="M 1548.8948,511.59609 V 292.28286"
         id="path4478-9-6-7-5"
         inkscape:label="event3" /><path
         style="fill:#008000;stroke:#ff0000;stroke-width:14;stroke-dasharray:none;stroke-opacity:1;marker-end:url(#Diamond)"
         d="M 1188.5674,512.0955 V 292.78227"
         id="path4478-9-6"
         inkscape:label="event2" /><path
         style="fill:#d40000;stroke:#008000;stroke-width:14;stroke-dasharray:none;stroke-opacity:1;marker-end:url(#Dot)"
         d="M 660.58793,512.02377 V 292.71054"
         id="path4478"
         inkscape:label="event1" /></g><g
       id="g653"
       inkscape:label="original signal"><path
         style="fill:#ff6600;stroke:#ff6600;stroke-width:14;stroke-dasharray:none;stroke-opacity:1;marker-end:url(#TriangleStart)"
         d="M -325.7061,511.81455 V 292.50132"
         id="path4478-9-6-7"
         inkscape:label="event_observed" /><path
         style="fill:#000000;stroke-width:100;stroke-dasharray:none"
         d="M -1153.9116,526.52693 H 434.88994"
         id="path1140-6" /><path
         style="fill:#000000;stroke-width:100;stroke-dasharray:none"
         d="M -1167.084,576.32903 H 370.43434"
         id="path1881-9" /><path
         style="fill:#000000;stroke:#000000;stroke-width:7.03592;stroke-dasharray:none;stroke-opacity:1"
         d="M -1250.1107,510.54685 H 273.90777"
         id="path1883-6-1" /><path
         style="display:inline;fill:#2b0000;stroke:#2b0000;stroke-width:5.55002;stroke-dasharray:none;stroke-opacity:1"
         d="m -1008.2662,609.73333 c -3.4963,-2.7502 -4.3617,-7.3722 -8.0004,-42.7302 -0.8795,-8.547 -2.117,-20.4102 -2.7498,-26.3626 -0.6329,-5.9524 -1.6683,-15.6927 -2.3009,-21.645 -0.6326,-5.9524 -1.8633,-18.0654 -2.7348,-26.9176 -0.8715,-8.8523 -2.1159,-21.0901 -2.7653,-27.1951 -0.6494,-6.105 -1.7116,-16.0951 -2.3604,-22.2001 -0.6489,-6.105 -1.759,-16.8443 -2.467,-23.8651 -2.0317,-20.1468 -2.8441,-18.203 -9.0461,21.6451 -4.5944,29.5193 -11.6458,71.9526 -12.3076,74.0638 -0.8711,2.7786 -5.8827,6.394 -7.8283,5.6474 -1.6639,-0.6385 -12.7658,-13.5895 -25.3855,-29.6135 -3.663,-4.6512 -6.9651,-8.4603 -7.3381,-8.4646 -0.3729,0 -4.1192,6.5203 -8.325,14.4994 -4.2058,7.979 -8.5741,15.3466 -9.7074,16.3725 -1.8735,1.6961 -7.0948,1.8607 -57.5811,1.8153 l -55.5208,-0.05 -2.0815,-2.5705 c -2.729,-3.3701 -2.6421,-8.4097 0.2141,-12.4208 l 2.2955,-3.2239 h 52.4933 52.4933 l 8.0186,-15.8175 c 11.1089,-21.9134 11.8606,-23.0326 15.4694,-23.0326 3.5379,0 7.0965,3.4968 19.2035,18.8701 8.1059,10.2928 11.678,14.0823 12.443,13.2007 0.2079,-0.2396 1.4781,-7.4287 2.8227,-15.9757 3.3257,-21.1405 8.7267,-55.1447 10.0494,-63.2702 1.5794,-9.7028 5.4845,-34.7979 6.2183,-39.9602 1.9531,-13.74023 6.4472,-35.92462 7.8123,-38.5646 1.1598,-2.24275 2.4189,-3.06052 4.7122,-3.06052 5.7915,0 6.7584,2.52225 9.1029,23.7472 3.3097,29.96102 4.2431,38.70042 6.0593,56.72802 2.657,26.3744 3.7546,36.9864 4.9941,48.2852 0.6363,5.7998 1.8985,18.0376 2.8051,27.1951 1.8993,19.1869 3.1564,31.4736 5.4512,53.2802 0.8994,8.547 1.6501,15.9146 1.6681,16.3725 0.018,0.4579 0.4718,0.8325 1.0083,0.8325 0.5364,0 2.35124,-5.1199 4.03274,-11.3775 5.83,-21.6956 11.4058,-41.362 12.5429,-44.2406 1.3734,-3.4768 5,-4.2783 19.6341,-4.3393 l 9.99,-0.042 8.3251,-12.3633 c 13.4367,-19.9544 16.3169,-23.2868 19.7807,-22.8866 2.4829,0.2869 4.9589,3.3242 14.9844,18.3813 l 12.0101,18.0375 h 43.0038 43.0039 l 2.4288,3.2851 c 3.2648,4.4159 3.1251,8.9938 -0.3749,12.2818 l -2.8035,2.6338 -45.2788,0.4731 -45.2787,0.473 -3.3566,-4.3009 c -1.8461,-2.3655 -6.7236,-9.4207 -10.8388,-15.6784 -4.1152,-6.2576 -7.8239,-11.3775 -8.2415,-11.3775 -0.4177,0 -2.363,2.3726 -4.3229,5.2725 -8.4229,12.4624 -13.5984,19.6333 -15.6538,21.6887 -1.8136,1.8135 -4.2928,2.3196 -14.1182,2.8819 l -11.9184,0.682 -2.0623,7.77 c -1.1343,4.2735 -3.8103,14.2636 -5.9467,22.2001 -18.46294,68.5884 -16.8361,63.5422 -21.23074,65.8546 -1.9351,1.0182 -2.8949,0.8458 -5.1453,-0.9244 z"
         id="path3883-2"
         inkscape:label="heartbeat1" /><path
         style="display:inline;fill:#2b0000;stroke:#2b0000;stroke-width:5.55002;stroke-dasharray:none;stroke-opacity:1"
         d="m 33.470045,614.59763 c -3.4963,-2.7502 -4.3617,-7.3722 -8.0004,-42.7302 -0.8795,-8.547 -2.117,-20.4102 -2.7498,-26.3626 -0.6329,-5.9523 -1.6683,-15.6926 -2.3009,-21.645 -0.6326,-5.9524 -1.8633,-18.0653 -2.7348,-26.9176 -0.8715,-8.8523 -2.1159,-21.0901 -2.7653,-27.1951 -0.6494,-6.105 -1.7116,-16.095 -2.3604,-22.2001 -0.6489,-6.105 -1.759,-16.8443 -2.467,-23.865 -2.0317001,-20.1469 -2.8441001,-18.2031 -9.0461001,21.645 -4.5944,29.5193 -11.6457999,71.9526 -12.3075999,74.0638 -0.8711,2.7787 -5.8827,6.394 -7.8283,5.6474 -1.6639,-0.6385 -12.7658,-13.5895 -25.3855,-29.6135 -3.663,-4.6512 -6.9651,-8.4602 -7.3381,-8.4646 -0.3729,0 -4.1192,6.5203 -8.325,14.4994 -4.2058,7.979 -8.5741,15.3467 -9.7074,16.3725 -1.8735,1.6961 -7.0948,1.8607 -57.581105,1.8153 l -55.5208,-0.05 -2.0815,-2.5705 c -2.729,-3.3701 -2.6421,-8.4097 0.2141,-12.4208 l 2.2956,-3.2238 h 52.4932 52.493305 l 8.0186,-15.8176 c 11.1089,-21.9134 11.8606,-23.0326 15.4694,-23.0326 3.5379,0 7.0965,3.4969 19.2035,18.8701 8.1059,10.2928 11.678,14.0824 12.443,13.2007 0.2079,-0.2396 1.4781,-7.4287 2.8227,-15.9757 3.3257,-21.1405 8.7267,-55.1447 10.0493999,-63.2702 1.5794,-9.7028 5.4845,-34.7979 6.2183,-39.9602 1.9531,-13.7402 6.4472,-35.92459 7.8123,-38.56457 1.1598,-2.24275 2.4189,-3.06052 4.7122,-3.06052 5.7915001,0 6.7584001,2.52225 9.1029001,23.7472 3.3097,29.96099 4.2431,38.70049 6.0593,56.72809 2.657,26.3743 3.7546,36.9864 4.9941,48.2851 0.6363,5.7998 1.8985,18.0376 2.8051,27.1951 1.8993,19.187 3.1564,31.4736 5.4512,53.2802 0.8994,8.547 1.6501,15.9147 1.6681,16.3725 0.018,0.4579 0.4718,0.8325 1.0083,0.8325 0.5364,0 2.3512,-5.1198 4.0327,-11.3775 5.83,-21.6956 11.4058,-41.362 12.5429,-44.2406 1.3734,-3.4767 5,-4.2782 19.6341,-4.3393 l 9.99,-0.042 8.3251,-12.3632 c 13.436695,-19.9545 16.316895,-23.2869 19.780695,-22.8867 2.4829,0.2869 4.9589,3.3242 14.9844,18.3813 l 12.0101,18.0376 h 43.0038 43.0039 l 2.4287,3.285 c 3.2649,4.4159 3.1251,8.9938 -0.3748,12.2818 l -2.8036,2.6339 -45.2787,0.473 -45.2787,0.473 -3.3566,-4.3008 c -1.8461,-2.3655 -6.7236,-9.4208 -10.8388,-15.6784 -4.1152,-6.2577 -7.8239,-11.3776 -8.2415,-11.3776 -0.4177,0 -2.363,2.3726 -4.3229,5.2725 -8.4229,12.4625 -13.598395,19.6334 -15.653795,21.6887 -1.8136,1.8136 -4.2928,2.3196 -14.1182,2.8819 l -11.9184,0.682 -2.0623,7.77 c -1.1343,4.2736 -3.8103,14.2636 -5.9467,22.2001 -18.4629,68.5884 -16.8361,63.5422 -21.2307,65.8546 -1.9351,1.0182 -2.8949,0.8458 -5.1453,-0.9243 z"
         id="path4161-7"
         inkscape:label="heartbeat2" /><path
         style="display:inline;fill:#2b0000;stroke:#2b0000;stroke-width:1.85;stroke-dasharray:none;stroke-dashoffset:0;stroke-opacity:1;image-rendering:auto"
         d="m -490.40986,403.58423 c -3.4963,2.7502 -4.3617,7.3722 -8.0004,42.7302 -0.8795,8.547 -2.117,20.4102 -2.7498,26.3626 -0.6329,5.9524 -1.6683,15.6927 -2.3009,21.645 -0.6326,5.9524 -1.8633,18.0654 -2.7348,26.9176 -0.8715,8.8523 -2.1159,21.0901 -2.7653,27.1951 -0.6494,6.105 -1.7116,16.0951 -2.3604,22.2001 -0.6489,6.105 -1.759,16.8443 -2.467,23.8651 -2.0317,20.1468 -2.8441,18.203 -9.0461,-21.6451 -4.5944,-29.5193 -11.6458,-71.9526 -12.3076,-74.0638 -0.8711,-2.7786 -5.8827,-6.394 -7.8283,-5.6474 -1.6639,0.6385 -12.7658,13.5895 -25.3855,29.6135 -3.663,4.6512 -6.9651,8.4603 -7.3381,8.4646 -0.3729,0 -4.1192,-6.5203 -8.325,-14.4994 -4.2058,-7.979 -8.5741,-15.3466 -9.7074,-16.3725 -1.8735,-1.6961 -7.0948,-1.8607 -57.5811,-1.8153 l -55.5208,0.05 -2.0815,2.5705 c -2.729,3.3701 -2.6421,8.4097 0.2141,12.4208 l 2.2956,3.2239 h 52.4932 52.4933 l 8.0186,15.8175 c 11.1089,21.9134 11.8606,23.0326 15.4694,23.0326 3.5379,0 7.0965,-3.4968 19.2035,-18.8701 8.1059,-10.2928 11.678,-14.0823 12.443,-13.2007 0.2079,0.2396 1.4781,7.4287 2.8227,15.9757 3.3257,21.1405 8.7267,55.1447 10.0494,63.2702 1.5794,9.7028 5.4845,34.7979 6.2183,39.9602 1.9531,13.7403 6.4472,35.9246 7.8123,38.5646 1.1598,2.2428 2.4189,3.0605 4.7122,3.0605 5.7915,0 6.7584,-2.5222 9.1029,-23.7472 3.3097,-29.9609 4.2431,-38.7004 6.0593,-56.728 2.657,-26.3744 3.7546,-36.9864 4.9941,-48.2852 0.6363,-5.7998 1.8985,-18.0376 2.8051,-27.1951 1.8993,-19.187 3.1564,-31.4736 5.4512,-53.2802 0.8994,-8.547 1.6501,-15.9146 1.6681,-16.3725 0.018,-0.4579 0.4718,-0.8325 1.0083,-0.8325 0.5364,0 2.3512,5.1199 4.0327,11.3775 5.83,21.6956 11.4058,41.362 12.5429,44.2406 1.3734,3.4767 5,4.2782 19.6341,4.3393 l 9.99,0.042 8.3251,12.3633 c 13.4367,19.9544 16.3169,23.2868 19.7807,22.8866 2.4829,-0.2869 4.9589,-3.3242 14.9844,-18.3813 l 12.0101,-18.0375 h 43.0038 43.0038 l 2.4287,-3.2851 c 3.2649,-4.4159 3.1251,-8.9938 -0.3748,-12.2818 l -2.8036,-2.6338 -45.2786,-0.4731 -45.2787,-0.473 -3.3566,4.3009 c -1.8461,2.3655 -6.7236,9.4207 -10.8388,15.6784 -4.1152,6.2576 -7.8239,11.3775 -8.2415,11.3775 -0.4177,0 -2.363,-2.3726 -4.3229,-5.2725 -8.4229,-12.4624 -13.5984,-19.6333 -15.6538,-21.6887 -1.8136,-1.8135 -4.2928,-2.3196 -14.1182,-2.8819 l -11.9184,-0.682 -2.0623,-7.77 c -1.1343,-4.2735 -3.8103,-14.2636 -5.9467,-22.2001 -18.4629,-68.5884 -16.8361,-63.5422 -21.2307,-65.8546 -1.9351,-1.0182 -2.8949,-0.8458 -5.1453,0.9244 z"
         id="anomaly-0" /></g><path
       style="fill:none;stroke:#2b0000;stroke-width:18;stroke-dasharray:none;marker-end:url(#Arrow4)"
       d="M 110.70472,320.31838 C 218.7704,227.43543 386.78121,181.80778 573.07909,299.6815"
       id="path451"
       sodipodi:nodetypes="cc"
       inkscape:label="link" /></g></svg>
