<?xml version="1.0" encoding="UTF-8" standalone="no"?>
<!-- Created with Inkscape (http://www.inkscape.org/) -->

<svg
   width="4403.772"
   height="2509.6409"
   viewBox="0 0 4403.7719 2509.6413"
   version="1.1"
   id="svg5"
   xml:space="preserve"
   inkscape:export-filename="unrolled.png"
   inkscape:export-xdpi="96"
   inkscape:export-ydpi="96"
   inkscape:version="1.2.2 (b0a8486541, 2022-12-01)"
   sodipodi:docname="unrolled.svg"
   xmlns:inkscape="http://www.inkscape.org/namespaces/inkscape"
   xmlns:sodipodi="http://sodipodi.sourceforge.net/DTD/sodipodi-0.dtd"
   xmlns="http://www.w3.org/2000/svg"
   xmlns:svg="http://www.w3.org/2000/svg"><sodipodi:namedview
     id="namedview7"
     pagecolor="#505050"
     bordercolor="#eeeeee"
     borderopacity="1"
     inkscape:showpageshadow="0"
     inkscape:pageopacity="0"
     inkscape:pagecheckerboard="0"
     inkscape:deskcolor="#505050"
     inkscape:document-units="px"
     showgrid="false"
     inkscape:zoom="0.23015585"
     inkscape:cx="1722.7457"
     inkscape:cy="1816.1607"
     inkscape:window-width="2560"
     inkscape:window-height="1339"
     inkscape:window-x="0"
     inkscape:window-y="32"
     inkscape:window-maximized="1"
     inkscape:current-layer="layer2" /><defs
     id="defs2"><rect
       x="61.894413"
       y="913.0163"
       width="1805.6432"
       height="1490.4006"
       id="rect8841" /><rect
       x="29.147623"
       y="2130.2935"
       width="2336.9524"
       height="750.84912"
       id="rect3809" /><rect
       x="331.36011"
       y="27.345919"
       width="1145.2007"
       height="241.70859"
       id="rect3749" /><rect
       x="2281.6221"
       y="487.97156"
       width="1937.6243"
       height="250.28313"
       id="rect3689" /><rect
       x="2044.2585"
       y="192.02844"
       width="2183.6897"
       height="539.55627"
       id="rect3627" /><rect
       x="2755.1145"
       y="755.19122"
       width="376.98959"
       height="371.25629"
       id="rect2673" /><marker
       style="overflow:visible"
       id="Arrow4"
       refX="0"
       refY="0"
       orient="auto-start-reverse"
       inkscape:stockid="Arrow4"
       markerWidth="5"
       markerHeight="6"
       viewBox="0 0 5 6"
       inkscape:isstock="true"
       inkscape:collect="always"
       preserveAspectRatio="xMidYMid"><path
         style="fill:context-stroke;fill-rule:evenodd;stroke:none"
         d="m 1,0 -3,3 h -2 l 3,-3 -3,-3 h 2 z"
         id="path1741" /></marker><marker
       style="overflow:visible"
       id="TriangleStart"
       refX="0"
       refY="0"
       orient="auto-start-reverse"
       inkscape:stockid="TriangleStart"
       markerWidth="5.3244081"
       markerHeight="6.155385"
       viewBox="0 0 5.3244081 6.1553851"
       inkscape:isstock="true"
       inkscape:collect="always"
       preserveAspectRatio="xMidYMid"><path
         transform="scale(0.5)"
         style="fill:context-stroke;fill-rule:evenodd;stroke:context-stroke;stroke-width:1pt"
         d="M 5.77,0 -2.88,5 V -5 Z"
         id="path135" /></marker><rect
       x="1515.0197"
       y="641.33795"
       width="633.90112"
       height="455.05872"
       id="rect6188" /><marker
       style="overflow:visible"
       id="Dot-9"
       refX="0"
       refY="0"
       orient="auto"
       inkscape:stockid="Dot"
       markerWidth="5.6666665"
       markerHeight="5.6666665"
       viewBox="0 0 5.6666667 5.6666667"
       inkscape:isstock="true"
       inkscape:collect="always"
       preserveAspectRatio="xMidYMid"><path
         transform="scale(0.5)"
         style="fill:context-stroke;fill-rule:evenodd;stroke:context-stroke;stroke-width:1pt"
         d="M 5,0 C 5,2.76 2.76,5 0,5 -2.76,5 -5,2.76 -5,0 c 0,-2.76 2.3,-5 5,-5 2.76,0 5,2.24 5,5 z"
         id="Dot1-1"
         sodipodi:nodetypes="sssss" /></marker><marker
       style="overflow:visible"
       id="Dot-6-2"
       refX="0"
       refY="0"
       orient="auto"
       inkscape:stockid="Dot"
       markerWidth="5.6666665"
       markerHeight="5.6666665"
       viewBox="0 0 5.6666667 5.6666667"
       inkscape:isstock="true"
       inkscape:collect="always"
       preserveAspectRatio="xMidYMid"><path
         transform="scale(0.5)"
         style="fill:context-stroke;fill-rule:evenodd;stroke:context-stroke;stroke-width:1pt"
         d="M 5,0 C 5,2.76 2.76,5 0,5 -2.76,5 -5,2.76 -5,0 c 0,-2.76 2.3,-5 5,-5 2.76,0 5,2.24 5,5 z"
         id="Dot1-2-7"
         sodipodi:nodetypes="sssss" /></marker><marker
       style="overflow:visible"
       id="Diamond-0"
       refX="0"
       refY="0"
       orient="auto"
       inkscape:stockid="Diamond"
       markerWidth="7.2124891"
       markerHeight="7.2124891"
       viewBox="0 0 7.2124892 7.2124892"
       inkscape:isstock="true"
       inkscape:collect="always"
       preserveAspectRatio="xMidYMid"><path
         transform="scale(0.45)"
         style="fill:context-stroke;fill-rule:evenodd;stroke:context-stroke;stroke-width:1pt"
         d="M 0,-7.0710768 -7.0710894,0 0,7.0710589 7.0710462,0 Z"
         id="Diamond1-9" /></marker><marker
       style="overflow:visible"
       id="Dot-9-3"
       refX="0"
       refY="0"
       orient="auto"
       inkscape:stockid="Dot"
       markerWidth="5.6666665"
       markerHeight="5.6666665"
       viewBox="0 0 5.6666667 5.6666667"
       inkscape:isstock="true"
       inkscape:collect="always"
       preserveAspectRatio="xMidYMid"><path
         transform="scale(0.5)"
         style="fill:context-stroke;fill-rule:evenodd;stroke:context-stroke;stroke-width:1pt"
         d="M 5,0 C 5,2.76 2.76,5 0,5 -2.76,5 -5,2.76 -5,0 c 0,-2.76 2.3,-5 5,-5 2.76,0 5,2.24 5,5 z"
         id="Dot1-1-6"
         sodipodi:nodetypes="sssss" /></marker><marker
       style="overflow:visible"
       id="Dot-6-2-7"
       refX="0"
       refY="0"
       orient="auto"
       inkscape:stockid="Dot"
       markerWidth="5.6666665"
       markerHeight="5.6666665"
       viewBox="0 0 5.6666667 5.6666667"
       inkscape:isstock="true"
       inkscape:collect="always"
       preserveAspectRatio="xMidYMid"><path
         transform="scale(0.5)"
         style="fill:context-stroke;fill-rule:evenodd;stroke:context-stroke;stroke-width:1pt"
         d="M 5,0 C 5,2.76 2.76,5 0,5 -2.76,5 -5,2.76 -5,0 c 0,-2.76 2.3,-5 5,-5 2.76,0 5,2.24 5,5 z"
         id="Dot1-2-7-5"
         sodipodi:nodetypes="sssss" /></marker><marker
       style="overflow:visible"
       id="Diamond-0-3"
       refX="0"
       refY="0"
       orient="auto"
       inkscape:stockid="Diamond"
       markerWidth="7.2124891"
       markerHeight="7.2124891"
       viewBox="0 0 7.2124892 7.2124892"
       inkscape:isstock="true"
       inkscape:collect="always"
       preserveAspectRatio="xMidYMid"><path
         transform="scale(0.45)"
         style="fill:context-stroke;fill-rule:evenodd;stroke:context-stroke;stroke-width:1pt"
         d="M 0,-7.0710768 -7.0710894,0 0,7.0710589 7.0710462,0 Z"
         id="Diamond1-9-5" /></marker><marker
       style="overflow:visible"
       id="Diamond-0-3-6"
       refX="0"
       refY="0"
       orient="auto"
       inkscape:stockid="Diamond"
       markerWidth="7.2124891"
       markerHeight="7.2124891"
       viewBox="0 0 7.2124892 7.2124892"
       inkscape:isstock="true"
       inkscape:collect="always"
       preserveAspectRatio="xMidYMid"><path
         transform="scale(0.45)"
         style="fill:context-stroke;fill-rule:evenodd;stroke:context-stroke;stroke-width:1pt"
         d="M 0,-7.0710768 -7.0710894,0 0,7.0710589 7.0710462,0 Z"
         id="Diamond1-9-5-1" /></marker><rect
       x="29.147623"
       y="2130.2935"
       width="2036.8676"
       height="679.06604"
       id="rect3809-3" /></defs><g
     inkscape:groupmode="layer"
     id="layer2"
     inkscape:label="Layer 2"
     transform="translate(1373.9217,805.22471)"
     style="display:inline"><g
       id="g9399"
       inkscape:label="self-supervised learning"
       transform="translate(-0.38134401,104.64631)"><g
         id="g9097"
         inkscape:label="next-token prediction"><path
           style="display:inline;fill:#000000;stroke:#000000;stroke-width:7.09811;stroke-dasharray:none;stroke-opacity:1"
           d="M 1090.4896,470.07664 H 2641.5655"
           id="path1883-6-0-7" /><path
           style="display:inline;opacity:0.5;fill:#ff5555;stroke:none;stroke-width:18;stroke-dasharray:none"
           d="m 1490.5799,472.32224 c 77.4459,-444.568998 184.6957,-449.946498 271.0782,-4.2084"
           id="path1831-9-6"
           sodipodi:nodetypes="cc" /><path
           style="display:inline;opacity:0.5;fill:#529f52;fill-opacity:1;stroke:none;stroke-width:18;stroke-dasharray:none"
           d="m 2062.9292,471.14874 c 77.4459,-444.568998 184.6957,-449.946498 271.0782,-4.2084"
           id="path1831-2-2-2"
           sodipodi:nodetypes="cc" /><path
           style="display:inline;fill:#008000;stroke:#008000;stroke-width:5.55002;stroke-dasharray:none;stroke-opacity:1"
           d="m 1313.497,573.8177 c -3.4963,-2.7502 -4.3617,-7.3722 -8.0004,-42.7302 -0.8795,-8.54699 -2.117,-20.41019 -2.7498,-26.36259 -0.6329,-5.9524 -1.6683,-15.6927 -2.3009,-21.645 -0.6326,-5.9524 -1.8633,-18.0654 -2.7348,-26.9176 -0.8715,-8.8523 -2.1159,-21.0901 -2.7653,-27.1951 -0.6494,-6.105 -1.7116,-16.0951 -2.3604,-22.2001 -0.6489,-6.105 -1.759,-16.8443 -2.467,-23.8651 -2.0317,-20.1468 -2.8441,-18.203 -9.0461,21.6451 -4.5944,29.5193 -11.6458,71.9526 -12.3076,74.0638 -0.8711,2.7786 -5.8827,6.394 -7.8283,5.6474 -1.6639,-0.6385 -12.7658,-13.5895 -25.3855,-29.6135 -3.663,-4.6512 -6.9651,-8.4603 -7.3381,-8.4646 -0.3729,0 -4.1192,6.5203 -8.325,14.4994 -4.2058,7.979 -8.5741,15.3466 -9.7074,16.3725 -1.8735,1.6961 -7.0948,1.8607 -57.5811,1.8153 l -55.5208,-0.05 -2.0815,-2.5705 c -2.729,-3.3701 -2.6421,-8.4097 0.2141,-12.4208 l 2.2955,-3.2239 h 52.4933 52.4933 l 8.0186,-15.8175 c 11.1089,-21.9134 11.8606,-23.0326 15.4694,-23.0326 3.5379,0 7.0965,3.4968 19.2035,18.8701 8.1059,10.2928 11.678,14.0823 12.443,13.2007 0.2079,-0.2396 1.4781,-7.4287 2.8227,-15.9757 3.3257,-21.1405 8.7267,-55.1447 10.0494,-63.2702 1.5794,-9.7028 5.4845,-34.7979 6.2183,-39.9602 1.9531,-13.74023 6.4472,-35.92462 7.8123,-38.5646 1.1598,-2.24275 2.4189,-3.06052 4.7122,-3.06052 5.7915,0 6.7584,2.52225 9.1029,23.7472 3.3097,29.96102 4.2431,38.70042 6.0593,56.72802 2.657,26.3744 3.7546,36.9864 4.9941,48.2852 0.6363,5.7998 1.8985,18.0376 2.8051,27.1951 1.8993,19.1869 3.1564,31.4736 5.4512,53.2802 0.8994,8.547 1.6501,15.9146 1.6681,16.3725 0.018,0.4579 0.4718,0.8325 1.0083,0.8325 0.5364,0 2.3512,-5.1199 4.0327,-11.3775 5.83,-21.6956 11.4058,-41.362 12.5429,-44.2406 1.3734,-3.4768 5,-4.2783 19.6341,-4.3393 l 9.99,-0.042 8.3251,-12.3633 c 13.4367,-19.9544 16.3169,-23.2868 19.7807,-22.8866 2.4829,0.2869 4.9589,3.3242 14.9844,18.3813 l 12.0101,18.0375 h 43.0038 43.0039 l 2.4288,3.2851 c 3.2648,4.4159 3.1251,8.9938 -0.3749,12.2818 l -2.8035,2.6338 -45.2788,0.4731 -45.2787,0.473 -3.3566,-4.3009 c -1.8461,-2.3655 -6.7236,-9.4207 -10.8388,-15.6784 -4.1152,-6.2576 -7.8239,-11.3775 -8.2415,-11.3775 -0.4177,0 -2.363,2.3726 -4.3229,5.2725 -8.4229,12.4624 -13.5984,19.6333 -15.6538,21.6887 -1.8136,1.8135 -4.2928,2.3196 -14.1182,2.8819 l -11.9184,0.682 -2.0623,7.77 c -1.1343,4.2735 -3.8103,14.2636 -5.9467,22.2001 -18.4629,68.58839 -16.8361,63.54219 -21.2307,65.85459 -1.9351,1.0182 -2.8949,0.8458 -5.1453,-0.9244 z"
           id="path3883-2-3-9"
           inkscape:label="heartbeat1" /><path
           style="display:inline;fill:#008000;stroke:#008000;stroke-width:5.55002;stroke-dasharray:none;stroke-opacity:1"
           d="m 2364.5374,575.02122 c -3.4963,-2.7502 -4.3617,-7.3722 -8.0004,-42.7302 -0.8795,-8.54699 -2.117,-20.41019 -2.7498,-26.36259 -0.6329,-5.9524 -1.6683,-15.6927 -2.3009,-21.645 -0.6326,-5.9524 -1.8633,-18.0654 -2.7348,-26.9176 -0.8715,-8.8523 -2.1159,-21.0901 -2.7653,-27.1951 -0.6494,-6.105 -1.7116,-16.0951 -2.3604,-22.2001 -0.6489,-6.105 -1.759,-16.8443 -2.467,-23.8651 -2.0317,-20.1468 -2.8441,-18.203 -9.0461,21.6451 -4.5944,29.5193 -11.6458,71.9526 -12.3076,74.0638 -0.8711,2.7786 -5.8827,6.394 -7.8283,5.6474 -1.6639,-0.6385 -12.7658,-13.5895 -25.3855,-29.6135 -3.663,-4.6512 -6.9651,-8.4603 -7.3381,-8.4646 -0.3729,0 -4.1192,6.5203 -8.325,14.4994 -4.2058,7.979 -8.5741,15.3466 -9.7074,16.3725 -1.8735,1.6961 -7.0948,1.8607 -57.5811,1.8153 l -55.5208,-0.05 -2.0815,-2.5705 c -2.729,-3.3701 -2.6421,-8.4097 0.2141,-12.4208 l 2.2955,-3.2239 h 52.4933 52.4933 l 8.0186,-15.8175 c 11.1089,-21.9134 11.8606,-23.0326 15.4694,-23.0326 3.5379,0 7.0965,3.4968 19.2035,18.8701 8.1059,10.2928 11.678,14.0823 12.443,13.2007 0.2079,-0.2396 1.4781,-7.4287 2.8227,-15.9757 3.3257,-21.1405 8.7267,-55.1447 10.0494,-63.2702 1.5794,-9.7028 5.4845,-34.7979 6.2183,-39.9602 1.9531,-13.74023 6.4472,-35.92462 7.8123,-38.5646 1.1598,-2.24275 2.4189,-3.06052 4.7122,-3.06052 5.7915,0 6.7584,2.52225 9.1029,23.7472 3.3097,29.96102 4.2431,38.70042 6.0593,56.72802 2.657,26.3744 3.7546,36.9864 4.9941,48.2852 0.6363,5.7998 1.8985,18.0376 2.8051,27.1951 1.8993,19.1869 3.1564,31.4736 5.4512,53.2802 0.8994,8.547 1.6501,15.9146 1.6681,16.3725 0.018,0.4579 0.4718,0.8325 1.0083,0.8325 0.5364,0 2.3512,-5.1199 4.0327,-11.3775 5.83,-21.6956 11.4058,-41.362 12.5429,-44.2406 1.3734,-3.4768 5,-4.2783 19.6341,-4.3393 l 9.99,-0.042 8.3251,-12.3633 c 13.4367,-19.9544 16.3169,-23.2868 19.7807,-22.8866 2.4829,0.2869 4.9589,3.3242 14.9844,18.3813 l 12.0101,18.0375 h 43.0038 43.0039 l 2.4288,3.2851 c 3.2648,4.4159 3.1251,8.9938 -0.3749,12.2818 l -2.8035,2.6338 -45.2788,0.4731 -45.2787,0.473 -3.3566,-4.3009 c -1.8461,-2.3655 -6.7236,-9.4207 -10.8388,-15.6784 -4.1152,-6.2576 -7.8239,-11.3775 -8.2415,-11.3775 -0.4177,0 -2.363,2.3726 -4.3229,5.2725 -8.4229,12.4624 -13.5984,19.6333 -15.6538,21.6887 -1.8136,1.8135 -4.2928,2.3196 -14.1182,2.8819 l -11.9184,0.682 -2.0623,7.77 c -1.1343,4.2735 -3.8103,14.2636 -5.9467,22.2001 -18.4629,68.58839 -16.8361,63.54219 -21.2307,65.85459 -1.9351,1.0182 -2.8949,0.8458 -5.1453,-0.9244 z"
           id="path3883-2-3-9-6"
           inkscape:label="heartbeat1" /><path
           style="display:inline;fill:#ff0000;stroke:#ff0000;stroke-width:1.85;stroke-dasharray:none;stroke-dashoffset:0;stroke-opacity:1;image-rendering:auto"
           d="m 1841.4156,361.44447 c -3.4963,2.7502 -4.3617,7.3722 -8.0004,42.7302 -0.8795,8.547 -2.117,20.4102 -2.7498,26.3626 -0.6329,5.9524 -1.6683,15.6927 -2.3009,21.645 -0.6326,5.9524 -1.8633,18.0654 -2.7348,26.9176 -0.8715,8.8523 -2.1159,21.0901 -2.7653,27.1951 -0.6494,6.105 -1.7116,16.0951 -2.3604,22.2001 -0.6489,6.105 -1.759,16.84431 -2.467,23.86511 -2.0317,20.1468 -2.8441,18.203 -9.0461,-21.64511 -4.5944,-29.5193 -11.6458,-71.9526 -12.3076,-74.0638 -0.8711,-2.7786 -5.8827,-6.394 -7.8283,-5.6474 -1.6639,0.6385 -12.7658,13.5895 -25.3855,29.6135 -3.663,4.6512 -6.9651,8.4603 -7.3381,8.4646 -0.3729,0 -4.1192,-6.5203 -8.325,-14.4994 -4.2058,-7.979 -8.5741,-15.3466 -9.7074,-16.3725 -1.8735,-1.6961 -7.0948,-1.8607 -57.5811,-1.8153 l -55.5208,0.05 -2.0815,2.5705 c -2.729,3.3701 -2.6421,8.4097 0.2141,12.4208 l 2.2956,3.2239 h 52.4932 52.4933 l 8.0186,15.8175 c 11.1089,21.9134 11.8606,23.0326 15.4694,23.0326 3.5379,0 7.0965,-3.4968 19.2035,-18.8701 8.1059,-10.2928 11.678,-14.0823 12.443,-13.2007 0.2079,0.2396 1.4781,7.4287 2.8227,15.9757 3.3257,21.1405 8.7267,55.14471 10.0494,63.27021 1.5794,9.7028 5.4845,34.7979 6.2183,39.9602 1.9531,13.7403 6.4472,35.9246 7.8123,38.5646 1.1598,2.2428 2.4189,3.0605 4.7122,3.0605 5.7915,0 6.7584,-2.5222 9.1029,-23.7472 3.3097,-29.9609 4.2431,-38.7004 6.0593,-56.728 2.657,-26.37441 3.7546,-36.98641 4.9941,-48.28521 0.6363,-5.7998 1.8985,-18.0376 2.8051,-27.1951 1.8993,-19.187 3.1564,-31.4736 5.4512,-53.2802 0.8994,-8.547 1.6501,-15.9146 1.6681,-16.3725 0.018,-0.4579 0.4718,-0.8325 1.0083,-0.8325 0.5364,0 2.3512,5.1199 4.0327,11.3775 5.83,21.6956 11.4058,41.362 12.5429,44.2406 1.3734,3.4767 5,4.2782 19.6341,4.3393 l 9.99,0.042 8.3251,12.3633 c 13.4367,19.9544 16.3169,23.2868 19.7807,22.8866 2.4829,-0.2869 4.9589,-3.3242 14.9845,-18.3813 l 12.0101,-18.0375 h 43.0038 43.0038 l 2.4287,-3.2851 c 3.2649,-4.4159 3.1251,-8.9938 -0.3748,-12.2818 l -2.8036,-2.6338 -45.2786,-0.4731 -45.2787,-0.473 -3.3566,4.3009 c -1.8461,2.3655 -6.7236,9.4207 -10.8388,15.6784 -4.1153,6.2576 -7.824,11.3775 -8.2416,11.3775 -0.4177,0 -2.363,-2.3726 -4.3229,-5.2725 -8.4229,-12.4624 -13.5984,-19.6333 -15.6538,-21.6887 -1.8136,-1.8135 -4.2928,-2.3196 -14.1182,-2.8819 l -11.9184,-0.682 -2.0623,-7.77 c -1.1343,-4.2735 -3.8103,-14.2636 -5.9467,-22.2001 -18.4629,-68.5884 -16.8361,-63.5422 -21.2307,-65.8546 -1.9351,-1.0182 -2.8949,-0.8458 -5.1453,0.9244 z"
           id="anomaly-0-6-1" /><path
           style="display:inline;fill:#d40000;stroke:#008000;stroke-width:18;stroke-dasharray:none;stroke-opacity:1;marker-end:url(#Dot-9-3)"
           d="M 1100.5012,467.46924 V 248.15605"
           id="path4478-1-0" /><path
           style="display:inline;fill:#d40000;stroke:#008000;stroke-width:18;stroke-dasharray:none;stroke-opacity:1;marker-end:url(#Dot-6-2-7)"
           d="M 2147.6557,477.49914 V 258.18595"
           id="path4478-9-8-9" /><path
           style="display:inline;fill:#ff6600;stroke:#ff6600;stroke-width:18;stroke-dasharray:none;stroke-opacity:1;marker-end:url(#TriangleStart)"
           d="M 2306.9426,458.12841 V 238.81522"
           id="path4478-9-8-9-2" /><path
           style="display:inline;fill:#008000;stroke:#ff0000;stroke-width:18;stroke-dasharray:none;stroke-opacity:1;marker-end:url(#Diamond-0-3)"
           d="M 1628.4807,473.54094 V 254.22775"
           id="path4478-9-6-7-3" /><path
           style="display:inline;fill:#008000;stroke:#ff0000;stroke-width:18;stroke-dasharray:none;stroke-opacity:1;marker-end:url(#Diamond-0-3-6)"
           d="M 2516.3918,471.22321 V 251.91002"
           id="path4478-9-6-7-3-8" /><rect
           style="opacity:0.3;fill:#000000;stroke:#000000;stroke-width:18;stroke-dasharray:none"
           id="rect2245"
           width="723.37561"
           height="537.61743"
           x="2002.9037"
           y="123.33054" /><path
           style="opacity:1;fill:none;stroke:#000000;stroke-width:18;stroke-dasharray:none;marker-end:url(#Arrow4)"
           d="M 1403.0549,186.08816 C 1645.8115,43.589671 1667.2235,97.324573 1956.218,160.7871"
           id="path2405"
           sodipodi:nodetypes="cc" /><text
           xml:space="preserve"
           transform="translate(-1209.011,-925.82998)"
           id="text2671"
           style="font-size:266.667px;text-align:center;white-space:pre;shape-inside:url(#rect2673);display:inline;opacity:1;fill:none;stroke:#000000;stroke-width:18;stroke-dasharray:none"><tspan
             x="2869.476"
             y="982.92502"
             id="tspan10668"><tspan
               style="fill:#000000"
               id="tspan10666">?</tspan></tspan></text></g><text
         xml:space="preserve"
         transform="translate(-1499.0605,-841.72599)"
         id="text3625"
         style="font-size:200px;text-align:center;white-space:pre;shape-inside:url(#rect3627);display:inline;opacity:1;fill:#000000;stroke:#000000;stroke-width:3;stroke-dasharray:none"
         inkscape:label="Reconstruction"><tspan
           x="2469.7036"
           y="362.8293"
           id="tspan10670">Reconstruction</tspan></text><text
         xml:space="preserve"
         transform="translate(-1140.3022,-870.91273)"
         id="text3687"
         style="font-size:200px;text-align:center;white-space:pre;shape-inside:url(#rect3689);display:inline;opacity:1;fill:#000000;stroke:#000000;stroke-width:3;stroke-dasharray:none"
         inkscape:label="next-token pred"><tspan
           x="2318.0337"
           y="658.7707"
           id="tspan10672">Next token prediction</tspan></text><text
         xml:space="preserve"
         transform="translate(933.12502,-1304.7581)"
         id="text3807-6"
         style="font-size:266.667px;text-align:center;white-space:pre;shape-inside:url(#rect3809-3);display:inline;fill:#52c063;fill-opacity:1;stroke:#52c063;stroke-width:3;stroke-dasharray:none;stroke-opacity:1"
         inkscape:label="Self-supervised learning"><tspan
           x="128.38103"
           y="2358.0266"
           id="tspan10674">Self-supervised
</tspan><tspan
           x="531.31477"
           y="2691.3603"
           id="tspan10676">Learning</tspan></text></g><g
       id="g9321"
       inkscape:label="unrolled model"
       transform="translate(-12.889587,13.614087)"><text
         xml:space="preserve"
         transform="translate(-1451.8216,-1008.1916)"
         id="text3807"
         style="font-size:266.667px;text-align:center;white-space:pre;shape-inside:url(#rect3809);display:inline;opacity:1;fill:#52c063;fill-opacity:1;stroke:#52c063;stroke-width:3;stroke-dasharray:none;stroke-opacity:1"
         inkscape:label="unrolled dictionary based model"><tspan
           x="69.622769"
           y="2358.0266"
           id="tspan10678">Unrolled Dictionary </tspan><tspan
           x="434.82326"
           y="2691.3603"
           id="tspan10680">based Model</tspan></text><g
         id="g9164"
         inkscape:label="parameters"
         style="display:inline"><path
           style="display:inline;opacity:0.5;fill:#ff5555;stroke:none;stroke-width:18;stroke-dasharray:none"
           d="m -591.92064,-294.65666 c 77.4459,-444.569 184.6957,-449.9465 271.0782,-4.2084"
           id="path1831-9"
           sodipodi:nodetypes="cc" /><path
           style="display:inline;opacity:0.5;fill:#529f52;fill-opacity:1;stroke:none;stroke-width:18;stroke-dasharray:none"
           d="m -19.571335,-295.83016 c 77.445899,-444.569 184.695695,-449.9465 271.078195,-4.2084"
           id="path1831-2-2"
           sodipodi:nodetypes="cc" /><path
           style="display:inline;fill:#008000;stroke:#008000;stroke-width:5.55002;stroke-dasharray:none;stroke-opacity:1"
           d="m -607.13382,50.529691 c -3.4963,-2.7502 -4.3617,-7.3722 -8.0004,-42.7301999 -0.8795,-8.54699604 -2.117,-20.4101941 -2.7498,-26.3625941 -0.6329,-5.9524 -1.6683,-15.6927 -2.3009,-21.645 -0.6326,-5.9524 -1.8633,-18.0654 -2.7348,-26.9176 -0.8715,-8.8523 -2.1159,-21.0901 -2.7653,-27.1951 -0.6494,-6.104997 -1.7116,-16.095097 -2.3604,-22.200097 -0.6489,-6.105 -1.759,-16.8443 -2.467,-23.8651 -2.0317,-20.1468 -2.8441,-18.203 -9.0461,21.6451 -4.5944,29.519297 -11.6458,71.952597 -12.3076,74.063797 -0.8711,2.7786 -5.8827,6.394 -7.8283,5.6474 -1.6639,-0.6385 -12.7658,-13.5895 -25.38547,-29.6135 -3.663,-4.6512 -6.9651,-8.4603 -7.3381,-8.4646 -0.3729,0 -4.1192,6.5203 -8.325,14.4994 -4.2058,7.979 -8.5741,15.3466 -9.7074,16.3725 -1.8735,1.6961 -7.0948,1.8607 -57.5811,1.8153 l -55.5208,-0.05 -2.0815,-2.5705 c -2.729,-3.3701 -2.6421,-8.4097 0.2141,-12.4208 l 2.2955,-3.2239 h 52.4933 52.4933 l 8.0186,-15.8175 c 11.1089,-21.913397 11.8606,-23.032597 15.4694,-23.032597 3.5379,0 7.0965,3.496797 19.20347,18.870097 8.1059,10.2928 11.678,14.0823 12.443,13.2007 0.2079,-0.2396 1.4781,-7.4287 2.8227,-15.9757 3.3257,-21.140497 8.7267,-55.144697 10.0494,-63.270197 1.5794,-9.7028 5.4845,-34.7979 6.2183,-39.9602 1.9531,-13.74023 6.4472,-35.92462 7.8123,-38.5646 1.1598,-2.24275 2.4189,-3.06052 4.7122,-3.06052 5.7915,0 6.7584,2.52225 9.1029,23.7472 3.3097,29.96102 4.2431,38.70042 6.0593,56.72802 2.657,26.3744 3.7546,36.9864 4.9941,48.2852 0.6363,5.799797 1.8985,18.037597 2.8051,27.195097 1.8993,19.1869 3.1564,31.4736 5.4512,53.2802 0.8994,8.547 1.6501,15.9145981 1.6681,16.3724981 0.018,0.4579 0.4718,0.8325 1.0083,0.8325 0.5364,0 2.3512,-5.1199 4.0327,-11.3774981 5.83,-21.6956 11.4058,-41.362 12.5429,-44.2406 1.3734,-3.4768 5,-4.2783 19.6341,-4.3393 l 9.99,-0.042 8.3251,-12.3633 c 13.4367,-19.9544 16.3169,-23.2868 19.7807,-22.8866 2.4829,0.2869 4.9589,3.3242 14.9844,18.3813 l 12.0101,18.0375 h 43.0038 43.0039 l 2.4288,3.2851 c 3.2648,4.4159 3.1251,8.9938 -0.3749,12.2818 l -2.8035,2.6338 -45.2788,0.4731 -45.2787,0.473 -3.3566,-4.3009 c -1.8461,-2.3655 -6.7236,-9.4207 -10.8388,-15.6784 -4.1152,-6.2576 -7.8239,-11.3775 -8.2415,-11.3775 -0.4177,0 -2.363,2.3726 -4.3229,5.2725 -8.4229,12.4624 -13.5984,19.6333 -15.6538,21.6887 -1.8136,1.8135 -4.2928,2.3196 -14.1182,2.8819 l -11.9184,0.682 -2.0623,7.77 c -1.1343,4.2735 -3.8103,14.2636 -5.9467,22.2001 -18.4629,68.588394 -16.8361,63.542194 -21.2307,65.854594 -1.9351,1.0182 -2.8949,0.8458 -5.1453,-0.9244 z"
           id="path3883-2-3"
           inkscape:label="heartbeat1" /><path
           style="display:inline;fill:#ff0000;stroke:#ff0000;stroke-width:1.85;stroke-dasharray:none;stroke-dashoffset:0;stroke-opacity:1;image-rendering:auto"
           d="m -67.055765,-150.00132 c -3.4963,2.7502 -4.3617,7.3722 -8.0004,42.7302 -0.8795,8.547003 -2.117,20.410203 -2.7498,26.362603 -0.6329,5.9524 -1.6683,15.6927 -2.3009,21.645 -0.6326,5.9524 -1.8633,18.0654 -2.7348,26.9176 -0.8715,8.8523 -2.1159,21.0901 -2.7653,27.1951 -0.6494,6.10500004 -1.7116,16.0951 -2.3604,22.2001 -0.6489,6.105 -1.759,16.844304 -2.467,23.865104 -2.0317,20.1468 -2.8441,18.203 -9.0461,-21.645104 -4.594405,-29.5193 -11.645805,-71.9526 -12.307605,-74.0638 -0.8711,-2.7786 -5.8827,-6.394 -7.8283,-5.6474 -1.6639,0.6385 -12.7658,13.5895 -25.3855,29.6135 -3.663,4.6512 -6.9651,8.4603 -7.3381,8.4646 -0.3729,0 -4.1192,-6.5203 -8.325,-14.4994 -4.2058,-7.979 -8.5741,-15.3466 -9.7074,-16.3725 -1.8735,-1.6961 -7.0948,-1.8607 -57.5811,-1.8153 l -55.52085,0.05 -2.0815,2.5705 c -2.729,3.3701 -2.6421,8.4097 0.2141,12.4208 l 2.2956,3.2239 h 52.49325 52.4933 l 8.0186,15.8175 c 11.1089,21.91340004 11.8606,23.0326 15.4694,23.0326 3.5379,0 7.0965,-3.4968 19.2035,-18.8701 8.1059,-10.2928 11.678,-14.0823 12.443,-13.2007 0.2079,0.2396 1.4781,7.4287 2.8227,15.9757 3.3257,21.1405 8.7267,55.144704 10.0494,63.270204 1.5794,9.7028 5.4845,34.7979 6.2183,39.960201 1.9531,13.740302 6.447205,35.924602 7.812305,38.564602 1.1598,2.2428 2.4189,3.0605 4.7122,3.0605 5.7915,0 6.7584,-2.5222 9.1029,-23.7472 3.3097,-29.960903 4.2431,-38.700403 6.0593,-56.728003 2.657,-26.374404 3.7546,-36.986404 4.9941,-48.285204 0.6363,-5.7998 1.8985,-18.0376 2.8051,-27.1951 1.8993,-19.187 3.1564,-31.4736 5.4512,-53.2802 0.8994,-8.547 1.6501,-15.9146 1.6681,-16.3725 0.018,-0.4579 0.4718,-0.8325 1.0083,-0.8325 0.5364,0 2.3512,5.1199 4.0327,11.3775 5.83,21.6956 11.4058,41.362 12.5429,44.2406 1.3734,3.4767 5,4.2782 19.6341,4.3393 l 9.99,0.042 8.3250999,12.3633 c 13.4367,19.9544 16.3169001,23.28680004 19.7807001,22.88660004 2.4829,-0.2869 4.958896,-3.32420004 14.984396,-18.38130004 l 12.0101,-18.0375 h 43.0038 43.003799 l 2.4287,-3.2851 c 3.2649,-4.4159 3.1251,-8.9938 -0.3748,-12.2818 l -2.8036,-2.6338 -45.278599,-0.4731 -45.2787,-0.473 -3.3566,4.3009 c -1.8461,2.3655 -6.7236,9.4207 -10.8388,15.6784 -4.115196,6.2576 -7.823896,11.3775 -8.241496,11.3775 -0.4177,0 -2.363,-2.3726 -4.3229001,-5.2725 -8.42290004,-12.4624 -13.5984,-19.6333 -15.6538,-21.6887 -1.8136,-1.8135 -4.2927999,-2.3196 -14.1181999,-2.8819 l -11.9184,-0.682 -2.0623,-7.77 c -1.1343,-4.2735 -3.8103,-14.2636 -5.9467,-22.2001 -18.4629,-68.588403 -16.8361,-63.542203 -21.2307,-65.854603 -1.9351,-1.0182 -2.8949,-0.8458 -5.1453,0.9244 z"
           id="anomaly-0-6" /><path
           style="fill:#000000;stroke-width:100;stroke-dasharray:none"
           d="M -908.98424,-229.45026 H 628.53426"
           id="path1881-6" /><path
           style="fill:#000000;stroke:#000000;stroke-width:7.09811;stroke-dasharray:none;stroke-opacity:1"
           d="M -992.01094,-296.90226 H 559.06496"
           id="path1883-6-0" /><path
           style="fill:#d40000;stroke:#008000;stroke-width:18;stroke-dasharray:none;stroke-opacity:1;marker-end:url(#Dot-9)"
           d="M -981.99934,-299.50966 V -518.82285"
           id="path4478-1" /><path
           style="fill:#d40000;stroke:#008000;stroke-width:18;stroke-dasharray:none;stroke-opacity:1;marker-end:url(#Dot-6-2)"
           d="M 65.155164,-289.47976 V -508.79295"
           id="path4478-9-8" /><path
           style="fill:#008000;stroke:#ff0000;stroke-width:18;stroke-dasharray:none;stroke-opacity:1;marker-end:url(#Diamond-0)"
           d="M -454.01984,-283.43796 V -502.75115"
           id="path4478-9-6-7" /><text
           xml:space="preserve"
           transform="translate(-1161.7492,-869.6845)"
           id="text3747"
           style="font-size:200px;text-align:center;white-space:pre;shape-inside:url(#rect3749);display:inline;opacity:1;fill:#000000;stroke:#000000;stroke-width:3;stroke-dasharray:none"><tspan
             x="392.0602"
             y="198.1457"
             id="tspan10682">Parameters</tspan></text></g><g
         id="g9079"
         inkscape:label="neural network"
         transform="matrix(1.2648804,0,0,1.2648804,256.32318,-4.5141735)"><path
           style="fill:#000000;stroke-width:70.1608;stroke-dasharray:none"
           d="M -917.16211,266.70214 H 197.55309"
           id="path1140-6" /><path
           style="fill:#000000;stroke-width:70.1608;stroke-dasharray:none"
           d="M -926.40397,301.64367 H 152.33055"
           id="path1881-9" /><ellipse
           style="display:inline;fill:#ffffff;stroke:#000000;stroke-width:11.8697;stroke-dasharray:none"
           id="path3487-5"
           cx="-18.321609"
           cy="430.90393"
           rx="104.63223"
           ry="104.03423" /><g
           id="g4183"
           transform="matrix(0.7016076,0,0,0.7016076,-278.42535,-41.987531)"><ellipse
             style="display:inline;fill:#ffffff;stroke:#000000;stroke-width:16.9178;stroke-dasharray:none"
             id="path3487-7"
             cx="-221.92987"
             cy="445.8118"
             rx="149.13211"
             ry="148.27979" /><ellipse
             style="display:inline;fill:#ffffff;stroke:#000000;stroke-width:16.9178;stroke-dasharray:none"
             id="path3487-3"
             cx="-221.92987"
             cy="888.98975"
             rx="149.13211"
             ry="148.27979" /></g><g
           id="g4179"
           transform="matrix(0.7016076,0,0,0.7016076,-278.42535,-44.793962)"><ellipse
             style="fill:#ffffff;stroke:#000000;stroke-width:16.9178;stroke-dasharray:none"
             id="path3487"
             cx="-824.82257"
             cy="244.87381"
             rx="149.13211"
             ry="148.27979" /><ellipse
             style="display:inline;fill:#ffffff;stroke:#000000;stroke-width:16.9178;stroke-dasharray:none"
             id="path3487-56"
             cx="-824.82257"
             cy="700.41107"
             rx="149.13211"
             ry="148.27979" /><ellipse
             style="display:inline;fill:#ffffff;stroke:#000000;stroke-width:16.9178;stroke-dasharray:none"
             id="path3487-2"
             cx="-824.82257"
             cy="1155.9484"
             rx="149.13211"
             ry="148.27979" /></g><path
           style="fill:#ffffff;stroke:#000000;stroke-width:13.2587;stroke-dasharray:none"
           d="m -750.56608,141.47128 224.05068,72.96726"
           id="path4239" /><path
           style="fill:#ffffff;stroke:#000000;stroke-width:13.2587;stroke-dasharray:none"
           d="M -749.99841,421.50771 -542.71246,289.38377"
           id="path4241" /><path
           style="fill:#ffffff;stroke:#000000;stroke-width:13.2587;stroke-dasharray:none"
           d="m -752.50724,164.01358 237.88199,350.4429"
           id="path4243" /><path
           style="fill:#ffffff;stroke:#000000;stroke-width:13.2587;stroke-dasharray:none"
           d="m -748.44108,461.09269 202.34587,89.76691"
           id="path4245" /><path
           style="fill:#ffffff;stroke:#000000;stroke-width:13.2587;stroke-dasharray:none"
           d="M -745.41854,749.22062 -525.35383,635.6829"
           id="path4247" /><path
           style="fill:#ffffff;stroke:#000000;stroke-width:13.2587;stroke-dasharray:none"
           d="m -328.41222,555.20262 208.6388,-93.26021"
           id="path4249" /><path
           style="fill:#ffffff;stroke:#000000;stroke-width:13.2587;stroke-dasharray:none"
           d="M -117.5917,378.63303 -327.35764,297.69298"
           id="path4251" /><path
           style="fill:#ffffff;stroke:#000000;stroke-width:13.2587;stroke-dasharray:none"
           d="M -747.65182,729.24543 -514.93728,340.76229"
           id="path4253" /></g></g></g></svg>
